<svg xmlns:mydata="http://www.w3.org/2000/svg" mydata:contrastcolor="fdd850" mydata:template="Contrast" mydata:presentation="2.5" mydata:layouttype="undefined" mydata:specialfontid="undefined" mydata:id1="152" mydata:id2="354" mydata:companyname="p0temkin" mydata:companytagline="" version="1.1" xmlns="http://www.w3.org/2000/svg" xmlns:xlink="http://www.w3.org/1999/xlink" viewBox="0 60 550 350"><g fill="#041076" fill-rule="none" stroke="none" stroke-width="1" stroke-linecap="butt" stroke-linejoin="miter" stroke-miterlimit="10" stroke-dasharray="" stroke-dashoffset="0" font-family="none" font-weight="none" font-size="none" text-anchor="none" style="mix-blend-mode: normal"><g data-paper-data="{&quot;isGlobalGroup&quot;:true,&quot;bounds&quot;:{&quot;x&quot;:64.99999999999999,&quot;y&quot;:200.90254433260804,&quot;width&quot;:419.99999999999994,&quot;height&quot;:68.19491133478391}}"><g data-paper-data="{&quot;isPrimaryText&quot;:true}" fill-rule="nonzero"><path d="M170.30051,208.84327h-18.50753c-0.35729,0 -0.71458,0.35729 -0.71458,0.64312v9.86116h10.71865h8.50346c1.28624,0 8.432,0.35729 8.432,6.64556c0,6.28827 -7.00285,6.43119 -8.432,6.43119h-8.50346h-10.71865v32.94198c0,0.28583 0.35729,0.64312 0.71458,0.64312h9.28949c0.5002,0 0.71458,-0.35729 0.71458,-0.64312v-22.36624h8.50346c1.3577,0 19.29357,-0.21437 19.29357,-17.00692c0,-16.79255 -17.00692,-17.14984 -19.29357,-17.14984z" data-paper-data="{&quot;glyphName&quot;:&quot;P&quot;,&quot;glyphIndex&quot;:0,&quot;firstGlyphOfWord&quot;:true,&quot;word&quot;:1}" fill="#041076"></path><path d="M208.10161,266.00939c8.28909,0 16.57817,-5.43078 16.57817,-16.00651v-25.15309c0,-10.50427 -8.28909,-16.00651 -16.57817,-16.00651c-8.28909,0 -16.57817,5.50224 -16.57817,16.00651v25.15309c0,10.57573 8.28909,16.00651 16.57817,16.00651zM208.10161,218.20423c2.92976,0 6.00244,2.00081 6.00244,6.0739v26.08204c0,4.07309 -3.00122,6.14536 -6.00244,6.14536c-2.92976,0 -5.93098,-2.07227 -5.93098,-6.14536v-26.08204c0,-4.07309 2.92976,-6.0739 5.93098,-6.0739z" data-paper-data="{&quot;glyphName&quot;:&quot;0&quot;,&quot;glyphIndex&quot;:1,&quot;word&quot;:1}" fill="#041076"></path><path d="M238.18528,229.56599v35.80028c0,0.28583 0.28583,0.64312 0.78603,0.64312h9.21804c0.5002,0 0.85749,-0.35729 0.85749,-0.64312v-35.80028zM227.1808,218.63297h32.79906c0.5002,0 0.78603,-0.28583 0.78603,-0.64312v-8.50346c0,-0.28583 -0.28583,-0.64312 -0.78603,-0.64312h-32.79906c-0.42875,0 -0.78603,0.35729 -0.78603,0.64312v8.50346c0,0.35729 0.35729,0.64312 0.78603,0.64312z" data-paper-data="{&quot;glyphName&quot;:&quot;T&quot;,&quot;glyphIndex&quot;:2,&quot;word&quot;:1}" fill="#041076"></path><path d="M289.63479,255.3622h-16.22089v-12.86238h22.4377c0.42875,0 0.78603,-0.35729 0.78603,-0.64312v-9.07512c0,-0.35729 -0.35729,-0.64312 -0.78603,-0.64312h-22.4377v-12.93383h16.22089v-10.36136h-26.36787c-0.42875,0 -0.78603,0.35729 -0.78603,0.64312v55.87988c0,0.28583 0.35729,0.64312 0.78603,0.64312h26.36787z" data-paper-data="{&quot;glyphName&quot;:&quot;E&quot;,&quot;glyphIndex&quot;:3,&quot;word&quot;:1}" fill="#041076"></path><path d="M349.5163,252.21807h10.86156v-42.73167c0,-0.28583 -0.28583,-0.64312 -0.78603,-0.64312h-9.43241c-0.28583,0 -0.64312,0.21437 -0.78603,0.42875l-19.50794,41.87418l-20.50835,-41.87418c-0.07146,-0.21437 -0.5002,-0.42875 -0.71458,-0.42875h-9.57533c-0.5002,0 -0.71458,0.35729 -0.71458,0.64312v55.87988c0,0.28583 0.21437,0.64312 0.71458,0.64312h9.43241c0.42875,0 0.78603,-0.35729 0.78603,-0.64312v-32.08448l15.50631,30.01221c0.07146,0.21437 0.5002,0.42875 0.71458,0.42875h8.78929c0.21437,0 0.57166,-0.21437 0.64312,-0.42875l14.57736,-29.22618z" data-paper-data="{&quot;glyphName&quot;:&quot;M&quot;,&quot;glyphIndex&quot;:4,&quot;word&quot;:1}" fill="#041076"></path><path d="M409.11198,264.93753l-22.93791,-27.01099l22.72353,-28.0114c0.5002,-0.5002 0.14292,-1.07186 -0.64312,-1.07186h-11.6476c-0.14292,0 -0.57166,0.14292 -0.64312,0.21437l-21.50875,26.43933v-26.01058c0,-0.28583 -0.28583,-0.64312 -0.71458,-0.64312h-9.43241c-0.42875,0 -0.78603,0.35729 -0.78603,0.64312v53.02158v0c0,0 13.93424,-15.79214 15.36339,-17.29275l16.64963,20.5798c0.07146,0.07146 0.5002,0.21437 0.64312,0.21437h12.29072c0.71458,0 1.07186,-0.5002 0.64312,-1.07186z" data-paper-data="{&quot;glyphName&quot;:&quot;K&quot;,&quot;glyphIndex&quot;:5,&quot;word&quot;:1}" fill="#041076"></path><path d="M434.90819,256.2197h-5.71661v-20.22251v-17.36421v-9.7897h-10.93302v9.7897v17.36421v20.22251h-5.85953c-0.42875,0 -0.78603,0.28583 -0.78603,0.64312v8.50346c0,0.28583 0.35729,0.64312 0.78603,0.64312h22.50916c0.5002,0 0.78603,-0.35729 0.78603,-0.64312v-8.50346c0,-0.35729 -0.28583,-0.64312 -0.78603,-0.64312z" data-paper-data="{&quot;glyphName&quot;:&quot;I&quot;,&quot;glyphIndex&quot;:6,&quot;word&quot;:1}" fill="#041076"></path><path d="M484.21397,208.84327h-9.21804c-0.5002,0 -0.85749,0.35729 -0.85749,0.64312v37.22944l-26.36787,-37.65818c-0.07146,-0.14292 -0.5002,-0.21437 -0.64312,-0.21437h-9.50387c-0.35729,0 -0.71458,0.35729 -0.71458,0.64312v42.80313h10.93302v-24.15269l26.29641,37.65818c0.07146,0.14292 0.5002,0.21437 0.64312,0.21437h9.43241c0.5002,0 0.78603,-0.35729 0.78603,-0.64312v-55.87988c0,-0.28583 -0.28583,-0.64312 -0.78603,-0.64312z" data-paper-data="{&quot;glyphName&quot;:&quot;N&quot;,&quot;glyphIndex&quot;:7,&quot;lastGlyphOfWord&quot;:true,&quot;word&quot;:1}" fill="#041076"></path></g><g data-paper-data="{&quot;fillRule&quot;:&quot;evenodd&quot;,&quot;fillRuleOriginal&quot;:&quot;evenodd&quot;,&quot;isIcon&quot;:true,&quot;iconStyle&quot;:&quot;standalone&quot;,&quot;selectedEffects&quot;:{&quot;container&quot;:&quot;&quot;,&quot;transformation&quot;:&quot;rotate343;translate28&quot;,&quot;pattern&quot;:&quot;&quot;},&quot;bounds&quot;:{&quot;x&quot;:64.99999999999999,&quot;y&quot;:200.90254433260804,&quot;width&quot;:72.16500452228892,&quot;height&quot;:68.19491133478391},&quot;iconType&quot;:&quot;icon&quot;,&quot;isDetailed&quot;:false,&quot;source&quot;:&quot;ai&quot;,&quot;rawIconId&quot;:&quot;2JeD8-9Le9qQ7R8rxUprThKysTt9fW0JRSlAkLD2k2&quot;,&quot;suitableAsStandaloneIcon&quot;:true}" fill-rule="evenodd"><path d="M73.91115,210.46814c2.83432,-3.09068 7.01669,-6.14358 10.31795,-7.53186c3.20268,-1.34688 6.92277,-2.04625 8.9321,-1.67943c0.39807,0.07263 1.46295,-0.01491 2.36638,-0.19451c1.85475,-0.36866 4.05117,-0.08224 5.23236,0.68254c0.46024,0.29819 1.07962,0.42407 1.91259,0.3892c3.74735,-0.15713 6.93208,1.51331 8.54625,4.48245c0.5788,1.06494 0.74471,1.20787 1.88455,1.62456c1.56399,0.57181 3.19268,1.73328 4.23837,3.02279c0.63577,0.78359 0.9324,1.40695 1.41127,2.96382c0.56507,1.83741 0.58481,2.05299 0.29194,3.16825c-0.27948,1.06326 -0.77341,1.93006 -1.93487,3.39643c-0.23289,0.29398 -0.33173,0.96078 -0.29016,1.95849c0.03397,0.81665 0.03189,1.2308 0.23699,1.4571c0.2302,0.25412 0.72207,0.27111 1.8195,0.35516c0.69754,0.05309 1.74933,-0.03906 2.33734,-0.20455c0.6551,-0.18484 1.25507,-0.21822 1.54971,-0.08697c0.26434,0.11801 0.77816,0.19596 1.14217,0.17325c0.97502,-0.06103 1.28299,0.14117 1.55122,1.01851c0.25681,0.84 0.22307,1.80374 -0.08894,2.54351c-0.2019,0.47885 -1.21555,0.91097 -1.51651,0.64674c-0.09814,-0.086 -0.55578,-0.0354 -1.01739,0.11266c-0.63937,0.20514 -0.98893,0.18216 -1.47007,-0.09754c-0.62057,-0.36057 -2.76043,-0.42517 -4.05992,-0.12239c-0.16191,0.03767 -0.28673,0.04611 -0.37892,0.10561c-0.32395,0.20942 -0.23996,1.05046 0.08349,6.02027c0.1741,2.67143 0.48265,5.56652 0.68616,6.4332c0.33008,1.40714 0.44476,1.63598 1.07181,2.13712c1.17329,0.93812 2.11338,1.03132 4.38686,0.43479c1.0997,-0.28845 2.47665,-0.78619 3.05992,-1.10591c1.20796,-0.66206 3.0669,-2.28367 3.3231,-2.8983c0.14959,-0.3597 0.04869,-0.4349 -0.78185,-0.5818c-0.52441,-0.09275 -1.03146,-0.23682 -1.12628,-0.31995c-0.09489,-0.08339 0.63326,-0.91085 1.61821,-1.83845c2.14746,-2.02292 3.46687,-3.80941 4.95369,-6.70714c0.6102,-1.18919 1.14525,-2.17303 1.18932,-2.1865c0.14924,-0.04563 0.75768,2.18944 1.19611,4.39555c0.72886,3.66764 0.77882,8.3328 0.10012,9.36026c-0.22266,0.33687 -0.34812,0.26817 -1.10363,-0.60548l-0.85235,-0.98559l-1.00548,1.8133c-2.12619,3.83439 -4.81721,5.89349 -11.35804,8.69112c-3.00532,1.28545 -4.88568,2.35046 -5.70051,3.22852c-0.9548,1.02906 -1.03804,1.47033 -0.10779,0.57099c1.54282,-1.49134 2.14722,-1.79906 6.61566,-3.36835c4.96761,-1.74456 6.94017,-2.69016 9.85203,-4.72255c1.12405,-0.78459 2.10478,-1.39421 2.17921,-1.35463c0.30233,0.16064 -3.01991,6.04104 -4.21736,7.4643c-1.31123,1.55934 -3.13777,2.87728 -5.58535,4.03087c-2.79563,1.31772 -8.22246,2.55599 -11.95709,2.72833c-2.51547,0.11603 -7.94368,-0.16272 -10.04218,-0.51584c-3.02501,-0.50906 -6.62408,-1.68148 -8.43505,-2.74826c-1.74155,-1.02611 -1.94267,-1.2441 -1.65223,-1.79013c0.1349,-0.25392 -0.1469,-0.49746 -1.29008,-1.11436c-0.80457,-0.43432 -1.53768,-0.76654 -1.62951,-0.73847c-0.0917,0.02804 0.07051,0.30756 0.36071,0.62153l0.52723,0.57062l-0.95902,-0.57279c-1.12156,-0.67027 -1.6584,-0.42332 -0.69314,0.31854c0.34441,0.26479 0.59152,0.54635 0.54933,0.62591c-0.0424,0.07933 -0.39361,-0.12177 -0.78055,-0.44729c-0.81308,-0.68349 -1.41333,-0.67225 -0.99675,0.01877c0.49608,0.82268 3.03193,2.92485 4.92791,4.08468c1.85372,1.13437 5.03818,2.70062 5.31712,2.61534c0.07877,-0.02409 -1.07622,-0.70981 -2.56632,-1.52366c-3.42704,-1.87169 -4.61884,-2.71224 -4.57728,-3.22807c0.02802,-0.34677 0.0887,-0.34887 0.52098,-0.01803c2.42556,1.85612 7.44773,4.70635 9.71685,5.51418c1.94622,0.69272 4.52951,1.31763 4.63422,1.1207c0.03647,-0.06901 -0.70463,-0.35565 -1.64698,-0.63703c-1.9737,-0.58909 -5.22942,-2.12272 -5.14982,-2.42582c0.0298,-0.113 0.81971,0.07042 1.75568,0.40786c5.58644,2.01343 9.65145,2.50218 15.23062,1.83199c2.54138,-0.30546 5.08688,-0.93017 3.68127,-0.90372c-0.36938,0.00703 -1.75044,0.1303 -3.06885,0.27396c-1.31837,0.14379 -3.43307,0.23511 -4.69919,0.20292c-2.33239,-0.05912 -6.73962,-0.68796 -6.60427,-0.9423c0.04032,-0.07625 0.93779,-0.03652 1.99388,0.08831c2.61304,0.30835 6.46268,0.2734 9.16011,-0.08322c1.79219,-0.23728 3.05461,-0.56784 6.35872,-1.66602c2.26733,-0.7535 4.28733,-1.49343 4.48904,-1.64398l0.36659,-0.27382l-0.30705,0.46858c-0.47198,0.72057 -3.23054,3.3082 -4.79103,4.49444c-3.44396,2.61768 -8.07759,4.95674 -12.49648,6.30773c-3.24599,0.9924 -4.96053,1.29814 -8.233,1.4677c-6.50692,0.33745 -12.35718,-1.00606 -18.42021,-4.22962c-5.92101,-3.14809 -10.36813,-7.23505 -13.72137,-12.61045c-4.62419,-7.41268 -6.20649,-15.5056 -4.75321,-24.3119c1.11247,-6.74136 3.89922,-12.53028 8.38941,-17.42674zM74.40275,212.67732c2.6861,-3.29893 5.12937,-5.30288 9.1573,-7.51028c3.27521,-1.79488 7.5619,-2.81564 9.65558,-2.29898c0.46681,0.11533 1.33748,0.03718 2.41088,-0.21602c2.13752,-0.5042 3.38398,-0.39236 4.70591,0.42218c0.86938,0.53586 1.2982,0.63782 2.47035,0.58729c3.57846,-0.15458 5.87022,1.06805 7.38301,3.93872c0.51774,0.98271 0.88002,1.42297 1.32454,1.60979c0.33638,0.14129 0.68159,0.23875 0.76751,0.21682c0.2613,-0.06748 2.26451,0.93433 2.63989,1.32023c0.24399,0.25062 0.07234,0.22245 -0.55729,-0.09178c-1.25863,-0.62779 -1.60001,-0.43338 -0.42663,0.24312c1.44759,0.83434 1.82107,1.3084 0.57206,0.72573c-1.01251,-0.47218 -1.56037,-0.568 -1.46496,-0.25593c0.02158,0.07059 0.56845,0.36799 1.21533,0.66079c0.64688,0.2928 1.20169,0.6426 1.23323,0.77738c0.03652,0.15722 -0.01058,0.16079 -0.13223,0.0097c-0.10413,-0.12919 -0.62393,-0.35363 -1.15536,-0.49862c-0.86818,-0.23697 -1.00005,-0.22046 -1.29952,0.16298c-0.79706,1.02022 -0.77822,1.41312 0.22321,4.68866l0.94443,3.08909l-0.30698,1.51274c-0.27305,1.34669 -1.03696,3.00389 -1.3162,2.85552c-0.05741,-0.03064 -0.06664,-0.43412 -0.02058,-0.8965c0.12014,-1.20832 -0.53569,-3.19487 -1.31502,-3.98362c-1.20521,-1.21995 -2.92382,-2.41929 -3.50159,-2.44306c-0.7383,-0.03067 -1.61216,0.4887 -1.49077,0.88574c0.09448,0.30903 -0.77519,2.37255 -1.03302,2.45138c-0.07745,0.02368 -0.23742,-0.27254 -0.35542,-0.65849c-0.15898,-0.52002 -0.47891,-0.85997 -1.23441,-1.31217c-0.56092,-0.33581 -1.04053,-0.67989 -1.06573,-0.76467c-0.02537,-0.08487 0.06898,-0.59461 0.20952,-1.13306c0.30545,-1.16946 0.04757,-2.16394 -0.81112,-3.12971c-0.86489,-0.97281 -1.88814,-1.46407 -3.13111,-1.50358c-1.27469,-0.0404 -1.69025,0.0799 -2.61661,0.75786c-1.06803,0.7814 -1.42529,0.70395 -2.24847,-0.48781c-0.50113,-0.72545 -0.90464,-1.0797 -1.31938,-1.15827c-0.89077,-0.1688 -2.19326,0.4573 -2.75439,1.32422c-0.61265,0.94617 -1.59493,1.26945 -2.58671,0.85141c-1.7473,-0.73629 -3.37537,-0.64274 -5.09693,0.29276c-1.39864,0.75998 -2.65557,2.0146 -3.17767,3.172c-0.48979,1.08561 -0.29905,1.51932 0.66068,1.50265c1.55976,-0.02722 2.46262,0.86213 2.28033,2.24614c-0.1027,0.78067 -0.58339,1.08432 -1.46218,0.92404c-1.51229,-0.27624 -3.42043,0.84936 -4.00735,2.36343c-0.35832,0.92432 0.02859,2.16389 0.79135,2.53553c1.09621,0.53402 1.6663,1.16368 1.98112,2.18866c0.26587,0.86536 0.2408,1.12221 -0.18835,1.92953c-0.4182,0.78651 -0.61886,0.95795 -1.2947,1.10513c-0.79837,0.17353 -0.80005,0.17246 -1.08563,-0.76162c-0.72171,-2.36059 -2.84063,-2.32728 -5.40862,0.08492c-1.56657,1.47177 -2.48151,3.52662 -3.09768,6.95721l-0.50567,2.81607l-0.22603,-1.16943c-0.36532,-1.89098 -0.48435,-6.07273 -0.25413,-8.92953c0.51804,-6.43258 3.13146,-12.85909 7.32222,-18.00628zM84.69807,205.20687c-0.70018,0.21766 -0.7534,0.20781 -0.35813,-0.06661c0.25546,-0.17718 0.88197,-0.44798 1.39233,-0.60176c0.83289,-0.25082 0.86959,-0.24402 0.35813,0.06659c-0.31333,0.19037 -0.93983,0.46118 -1.39232,0.60178zM81.43284,207.41619c-0.03041,-0.09947 0.40271,-0.42329 0.96233,-0.71936c1.081,-0.5719 3.48745,-1.43057 3.3652,-1.20087c-0.03977,0.0752 -0.82343,0.4677 -1.74129,0.87238c-0.91747,0.40457 -1.8623,0.84656 -2.09973,0.9822c-0.2373,0.1356 -0.4561,0.16511 -0.48651,0.06565zM80.99428,208.72978c0.02743,-0.05185 0.38735,-0.29654 0.79967,-0.54397c0.41259,-0.24751 1.92363,-0.7847 3.35827,-1.1938c2.09644,-0.59795 2.74029,-0.70539 3.28165,-0.54775c0.51759,0.1507 0.72253,0.12114 0.88618,-0.12794c0.26236,-0.39908 0.92008,-0.41394 2.28759,-0.05154c1.55503,0.41226 1.4299,0.76419 -0.22023,0.61994c-2.36616,-0.20684 -4.30209,0.06145 -7.50017,1.0392c-1.61857,0.49508 -2.92058,0.85756 -2.89295,0.80587zM85.8372,208.56468c-1.33566,0.31895 -1.83886,0.37484 -1.52435,0.16948c1.52359,-0.995 5.29239,-1.54824 7.6962,-1.13c1.25438,0.21842 2.81309,0.88716 2.92566,1.25537c0.10483,0.34287 -0.07498,0.33052 -1.10607,-0.07595c-2.25084,-0.88725 -4.88982,-0.95954 -7.99144,-0.2189zM72.7558,216.09428c1.34077,-1.94882 2.28917,-3.01814 3.71037,-4.18382c1.6383,-1.34374 1.75035,-1.1429 0.22177,0.39787c-1.82055,1.83542 -2.68666,2.91718 -4.24288,5.29937c-0.69596,1.06533 -1.28381,1.87735 -1.30622,1.80405c-0.11553,-0.37789 0.58886,-1.82297 1.61695,-3.31749zM101.96836,210.52194c-0.45381,-1.45037 -2.83892,-3.29547 -5.42038,-4.19331c-1.22062,-0.42465 -1.06198,-0.49049 0.51814,-0.21562c2.41024,0.41944 5.18419,2.56089 5.48405,4.23354c0.15026,0.83835 -0.32902,0.98286 -0.5818,0.17539zM88.67785,209.83319c-0.00704,0.13838 -0.40831,0.0798 -0.90852,-0.13297c-0.5828,-0.24741 -0.78083,-0.41566 -0.56628,-0.48126c0.44032,-0.13462 1.49059,0.30293 1.4748,0.61423zM101.27278,206.55587c-0.66557,-0.4464 -1.22507,-0.85924 -1.24289,-0.91753c-0.09973,-0.32619 0.48234,-0.13688 1.51245,0.49148c2.09522,1.27822 3.85432,3.6383 3.99317,5.35678c0.02968,0.36751 -0.0416,0.69735 -0.15812,0.73297c-0.1206,0.03687 -0.22351,-0.16382 -0.23888,-0.46702c-0.07007,-1.37741 -1.9615,-3.9202 -3.86573,-5.19667zM75.33594,215.15862c0.54473,-0.6133 1.66025,-1.60513 2.47872,-2.20418c0.81854,-0.59883 1.72133,-1.15475 2.00639,-1.23513c0.19608,-0.05523 0.33464,-0.09849 0.35257,-0.06862c0.03787,0.06251 -0.45425,0.44536 -2.05823,1.70789c-1.66333,1.30906 -3.13801,2.9525 -4.3586,4.85691c-0.44019,0.68673 -0.83631,1.13142 -0.88019,0.98788c-0.11905,-0.38941 1.33084,-2.774 2.45933,-4.04475zM98.11919,208.81369c-0.11043,-0.14932 -0.81216,-0.61866 -1.55936,-1.04325c-1.43592,-0.8155 -1.48756,-1.067 -0.13135,-0.64013c0.92933,0.29257 2.21341,1.39296 2.01967,1.73097c-0.07038,0.12329 -0.21858,0.10196 -0.32895,-0.0476zM104.20258,207.31793c-0.60581,-0.66485 -1.11671,-1.25897 -1.13547,-1.32033c-0.09539,-0.31199 1.04986,0.4532 1.84359,1.23151c1.24457,1.22033 2.02514,3.27039 1.84665,4.8499c-0.06874,0.60955 -0.22436,1.13831 -0.34562,1.17539c-0.14541,0.04446 -0.18073,-0.11731 -0.10381,-0.47499c0.06871,-0.31939 -0.11352,-1.30526 -0.44348,-2.3977c-0.50526,-1.67245 -0.66898,-1.97435 -1.66187,-3.06379zM108.25152,209.28035c-0.04626,-0.02908 -0.3243,-0.61288 -0.61795,-1.29729c-0.29359,-0.6842 -0.47835,-1.26114 -0.41039,-1.28192c0.2036,-0.06225 1.1455,1.16954 1.31298,1.71734c0.13637,0.44604 -0.05007,1.01039 -0.28463,0.86187zM81.79666,217.81452c-0.24499,-0.13024 0.52573,-1.22292 1.57318,-2.23066c1.52935,-1.47121 1.87938,-1.40325 0.39702,0.07724c-0.69543,0.69428 -1.39344,1.47874 -1.55144,1.743c-0.15786,0.26421 -0.34635,0.44907 -0.41877,0.41041zM87.89987,219.73055c0.80744,-1.62665 2.65298,-4.0774 3.89698,-5.17472c0.81681,-0.72058 1.31013,-0.95743 1.21129,-0.58133c-0.0353,0.13465 -0.20081,0.28658 -0.36786,0.33765c-0.88539,0.27069 -3.16816,2.93693 -4.54779,5.31175l-0.95907,1.65079zM84.00735,227.98549c-0.1963,-4.47556 1.41877,-8.82836 4.28966,-11.56157c1.86549,-1.77622 2.61793,-2.13394 1.22293,-0.58151c-2.43146,2.70564 -3.79867,5.42973 -4.26442,8.49633c-0.52016,3.42663 -0.40975,4.92041 0.61056,8.2577c0.46747,1.52904 1.03868,3.12175 1.26919,3.53924c0.3691,0.66831 0.37216,0.73923 0.0251,0.59414c-0.21684,-0.09054 -0.69339,-0.58648 -1.05946,-1.10191c-0.83024,-1.16953 -1.99642,-5.42662 -2.09355,-7.64242zM68.17672,228.03054c0.29525,-1.71606 0.99554,-4.13713 1.4969,-5.17458c0.47301,-0.97843 0.6782,-0.80151 0.24617,0.2123c-0.64513,1.51441 -1.65834,6.99099 -1.78212,9.63244c-0.0111,0.23771 -0.08526,0.39803 -0.16464,0.35564c-0.21641,-0.11491 -0.08543,-3.34421 0.20369,-5.02579zM108.06644,211.33812c-0.26308,-0.07049 -0.49989,-0.1985 -0.52619,-0.28453c-0.07616,-0.24912 0.32032,-0.29589 0.58694,-0.06892c0.13398,0.114 0.38246,0.16457 0.55241,0.11261c0.2003,-0.06124 0.40675,0.14257 0.58804,0.58074c0.39598,0.95775 0.10026,1.36053 -0.3573,0.4864c-0.20093,-0.38398 -0.58082,-0.7558 -0.8439,-0.82629zM79.47296,220.15578c-0.03207,-0.1049 -0.23332,-0.18362 -0.4475,-0.17484c-0.23952,0.00989 -0.17413,-0.05988 0.16974,-0.18103c0.37188,-0.13101 0.59066,-0.09358 0.65347,0.11187c0.05196,0.16995 0.00181,0.33722 -0.11154,0.37187c-0.11322,0.03461 -0.23211,-0.02297 -0.26418,-0.12787zM108.5518,212.88883c0.25358,0.82944 -0.1663,0.59436 -0.65873,-0.36882c-0.21332,-0.41741 -0.29048,-0.75569 -0.18004,-0.78945c0.26403,-0.08072 0.60313,0.38755 0.83877,1.15827zM70.85986,228.42193c-0.61779,-0.89528 0.41089,-3.72566 1.95094,-5.36808c0.46895,-0.49975 0.92191,-0.93099 1.00636,-0.95825c0.38998,-0.12442 0.17259,0.3443 -0.57698,1.24309c-0.92632,1.11097 -1.97021,3.59336 -1.89609,4.50971c0.06233,0.77465 -0.16199,1.04047 -0.48422,0.57353zM69.52698,226.50761c0.24064,-0.85097 0.70579,-2.00909 1.03348,-2.57387c0.68813,-1.18517 1.18865,-1.50874 0.66171,-0.42753c-0.53447,1.09635 -1.21602,3.49553 -1.54138,5.42539c-0.15955,0.9468 -0.37551,1.74738 -0.47993,1.7793c-0.33546,0.10256 -0.12519,-2.6066 0.32612,-4.20329zM89.05395,219.8224c0.26309,-0.55715 0.75835,-1.38988 1.10052,-1.85072c0.34217,-0.46085 0.67913,-0.84998 0.74886,-0.86496c0.06977,-0.01484 -0.05687,0.20049 -0.28154,0.47839c-0.22467,0.2779 -0.7771,1.12276 -1.22742,1.87783c-0.63283,1.06091 -0.7102,1.14243 -0.34041,0.35946zM88.60842,225.64138c0.66881,-3.66109 3.25387,-7.58167 6.08879,-9.2343c1.06916,-0.62338 4.13826,-1.55203 5.02987,-1.52206c0.81808,0.02734 1.92923,0.28555 1.85233,0.42997c-0.02519,0.04738 -0.45278,0.06744 -0.9504,0.04485c-0.49997,-0.02274 -1.68856,0.19536 -2.65708,0.48771c-2.18158,0.65832 -4.26146,2.10378 -5.72209,3.97674c-0.89648,1.14902 -1.95231,3.32948 -1.82088,3.75937c0.02917,0.0954 0.53732,-0.57245 1.12919,-1.48464c1.02325,-1.57677 3.28836,-3.96852 3.92289,-4.14231c0.16304,-0.04437 -0.17306,0.30656 -0.74635,0.78021c-3.04427,2.51439 -4.79415,6.75186 -4.4454,10.76426c0.35841,4.12329 3.83111,10.26712 7.40532,13.10251c1.72923,1.3714 1.87559,1.52966 1.05875,1.14252c-1.59063,-0.75382 -3.91477,-2.91956 -5.5234,-5.14708c-2.49608,-3.45632 -3.47523,-5.99921 -3.85242,-10.00364c-0.02825,-0.301 -0.09868,-0.12739 -0.1564,0.38558c-0.16013,1.42297 1.43236,6.41515 2.61703,8.20409c0.47649,0.71945 0.83915,1.35914 0.80586,1.42155c-0.12469,0.23493 -2.09522,-2.21409 -2.66859,-3.31643c-1.43035,-2.75109 -1.95312,-6.44076 -1.36703,-9.64891zM116.15249,212.23313c-0.03243,0.06099 -0.24392,-0.14185 -0.47001,-0.45046c-0.22613,-0.30875 -0.36733,-0.57478 -0.3139,-0.59111c0.13908,-0.04252 0.85476,0.90853 0.7839,1.04158zM96.41198,217.57354c-0.04745,0.08925 -0.22293,0.15098 -0.38957,0.13685c-0.1845,-0.01545 -0.1506,-0.07919 0.08629,-0.1623c0.21432,-0.07533 0.35073,-0.0638 0.30327,0.02545zM72.34918,226.37052c-0.2776,0.08487 -0.31351,-0.18579 -0.10806,-0.81751c0.26455,-0.81399 0.55705,-0.78092 0.41817,0.04717c-0.06561,0.39159 -0.20528,0.7383 -0.31011,0.77035zM84.07471,234.13376c-1.4425,-3.50818 -1.72684,-7.88757 -0.74415,-11.46773c0.45986,-1.67621 0.62259,-1.36813 0.18514,0.35071c-0.82037,3.22292 -0.59429,6.49903 0.71503,10.3616c0.4089,1.20673 0.68203,2.21243 0.60652,2.23537c-0.07516,0.02269 -0.41839,-0.64314 -0.76253,-1.47996zM81.69005,228.59916c-0.09286,-2.24148 0.16964,-4.91814 0.56509,-5.76017c0.11975,-0.25535 0.2366,-0.47013 0.25956,-0.47715c0.02296,-0.00702 -0.12632,0.90115 -0.33212,2.01806c-0.58684,3.18543 -0.39678,5.73021 0.70225,9.40992c0.5845,1.95714 0.7948,2.89793 0.58896,2.63477c-0.62027,-0.79236 -1.68617,-5.46896 -1.78374,-7.82544zM115.12303,213.77544c-0.37505,-0.42539 -0.69724,-0.83361 -0.71582,-0.90715c-0.07526,-0.29716 1.49039,1.23059 1.77017,1.7271c0.1654,0.29369 0.29284,0.88799 0.28331,1.32073c-0.01728,0.78398 -0.72031,2.14338 -1.18019,2.28196c-0.13294,0.03993 -0.05849,-0.21066 0.16537,-0.55729c0.48212,-0.74545 0.71734,-1.95866 0.50821,-2.62004c-0.08214,-0.2597 -0.45608,-0.8202 -0.83105,-1.24533zM80.68265,224.35932c-0.39217,1.63993 -0.58243,1.64342 -0.24742,0.0048c0.13689,-0.66978 0.31888,-1.23878 0.40439,-1.26492c0.08564,-0.02618 0.015,0.54081 -0.15696,1.26012zM117.94281,216.18052c-0.04335,0.15552 -0.31429,-0.48667 -0.60192,-1.42748c-0.28759,-0.94068 -0.42193,-1.62406 -0.29882,-1.51871c0.12332,0.10557 0.39399,0.74785 0.60179,1.42752c0.20776,0.67955 0.34236,1.36285 0.29895,1.51867zM90.90593,229.24296c-0.12097,-2.6317 0.88899,-5.86121 2.50122,-7.99766c0.34374,-0.4557 0.68208,-0.84035 0.75177,-0.85545c0.06981,-0.01471 -0.05877,0.19428 -0.2857,0.4648c-0.79614,0.94867 -2.1341,3.87129 -2.39813,5.23802c-0.14642,0.75897 -0.26381,2.11924 -0.2607,3.02281c0.00716,1.97768 -0.21909,2.07109 -0.30846,0.12749zM93.02721,230.23594c-0.24559,-3.76042 1.41133,-7.75968 3.99365,-9.6401c1.82597,-1.32974 3.96507,-1.64423 5.60356,-0.82353c0.71732,0.35942 0.76507,0.43961 1.01011,1.70596l0.25745,1.32864l0.68484,-0.21169c0.94264,-0.29108 2.39466,-1.64616 2.81086,-2.6228l0.34492,-0.80956l1.26647,0.76246c0.69645,0.41904 1.39147,0.96981 1.54448,1.22344c0.38189,0.63323 0.81473,2.71725 0.63485,3.05576c-0.22668,0.42612 -3.94857,0.41263 -4.80083,-0.01721c-0.50536,-0.25511 -0.92155,-0.28226 -1.5189,-0.09963c-0.45246,0.13833 -0.93554,0.19772 -1.07326,0.1319c-0.5934,-0.28303 -1.45686,-0.04256 -1.73682,0.48396c-0.28783,0.54134 -0.33755,1.88987 -0.09872,2.67765c0.14383,0.47516 1.27639,1.03371 1.78216,0.87908c0.1652,-0.05051 0.60023,0.02455 0.96705,0.16677c0.50346,0.1951 0.83723,0.17443 1.361,-0.0841c0.51927,-0.25629 1.19625,-0.30253 2.68895,-0.18335c1.09713,0.08776 2.15882,0.19645 2.35873,0.24153c0.3075,0.06946 0.32518,0.91966 0.11382,5.45074c-0.41109,8.81938 -0.52614,9.69227 -1.36052,10.33981c-0.86968,0.67507 -2.86624,-0.1096 -3.77476,-1.48375c-0.2577,-0.38985 -0.24028,-0.40036 0.59868,-0.3618c0.47533,0.0219 1.07469,-0.02008 1.33217,-0.09346c0.46593,-0.13249 0.46403,-0.13682 -0.48374,-1.03812c-1.52202,-1.44731 -2.49395,-2.92788 -3.25948,-4.96457c-0.38759,-1.0313 -0.7933,-1.89821 -0.90153,-1.92658c-0.24902,-0.06555 -1.18249,2.30417 -1.40643,3.57033c-0.2811,1.58981 -0.27144,3.38739 0.02341,4.35181c0.1533,0.50141 0.19156,0.90453 0.08524,0.89563c-0.33129,-0.02742 -2.75571,-1.5806 -3.59338,-2.30202c-2.94353,-2.53519 -5.21615,-6.95294 -5.45403,-10.60318zM116.02767,218.13414c0.72345,-0.89239 1.10783,-2.19679 0.8845,-3.00042c-0.09859,-0.35408 -0.09372,-0.5378 0.01053,-0.40822c0.10416,0.12975 0.22636,0.56434 0.27125,0.96602c0.09114,0.81677 -0.83886,2.85474 -1.37828,3.01965c-0.21125,0.06459 -0.13116,-0.15339 0.212,-0.57702zM78.04188,229.79994c-0.20887,0.3178 -0.27116,0.25561 -0.50325,-0.5035c-0.18367,-0.60077 -0.17799,-0.86439 0.0185,-0.86025c0.4235,0.0086 0.75751,0.94865 0.48475,1.36375zM89.9154,225.58635c-0.03582,-0.11717 -0.02224,-0.2936 0.03033,-0.39206c0.05223,-0.09864 0.15773,-0.14619 0.23414,-0.10535c0.07633,0.04058 0.06274,0.21701 -0.03033,0.39206c-0.10251,0.1928 -0.19473,0.23426 -0.23414,0.10535zM116.18958,219.16489c0.3932,-0.29205 0.81583,-0.72095 0.93905,-0.95268c0.1233,-0.23191 0.32091,-0.44872 0.43881,-0.48217c0.28625,-0.08073 -0.45022,0.997 -0.97684,1.42984c-0.22915,0.18822 -0.57398,0.38599 -0.7664,0.43948c-0.19233,0.05332 -0.02786,-0.14211 0.36538,-0.43447zM75.45232,237.20317c-0.23108,-0.75581 -0.40828,-2.42107 -0.44697,-4.19894c-0.02548,-1.17563 -0.01282,-1.20201 0.38358,-0.79295c0.33981,0.35061 0.44642,0.80684 0.62273,2.66586l0.21285,2.2429l2.2768,1.21813l2.27685,1.21826l3.04199,-0.93003c2.90476,-0.88807 3.04777,-0.9116 3.16803,-0.51825c0.12058,0.3944 -0.01142,0.45394 -3.11357,1.40237l-3.23965,0.99046l-2.4899,-1.31731c-2.11224,-1.11737 -2.52071,-1.41784 -2.69272,-1.98048zM73.64744,235.62246c-0.07863,-0.10769 -0.16387,-0.83724 -0.18921,-1.62133c-0.02546,-0.78376 0.02055,-1.44566 0.1019,-1.47053c0.08155,-0.02493 0.16662,0.70482 0.18921,1.62133c0.02267,0.91678 -0.02318,1.57849 -0.1019,1.47053zM72.44285,235.26052c-0.06857,-0.03646 -0.14967,-0.37685 -0.1803,-0.75691c-0.03058,-0.37993 -0.00581,-0.66424 0.05501,-0.63175c0.06099,0.03229 0.14197,0.373 0.1803,0.75691c0.03832,0.38391 0.01355,0.66822 -0.05501,0.63175zM87.15252,230.20711c0.16644,0.96444 0.00416,1.08677 -0.26661,0.20112c-0.127,-0.41538 -0.14497,-0.78142 -0.03994,-0.81353c0.10503,-0.03211 0.24308,0.2434 0.30655,0.6124zM82.62034,237.07914c-0.26841,-0.07045 -1.33293,-3.36595 -1.50612,-4.66248c-0.05962,-0.44608 -0.07421,-0.82181 -0.03252,-0.83455c0.04183,-0.01279 0.46021,1.23346 0.92971,2.7691c0.55312,1.80917 0.76751,2.76949 0.60893,2.72794zM102.99342,226.45932c-0.24754,0.07568 -0.33835,-0.27891 -0.22241,-0.86668c0.05263,-0.26628 0.15191,-0.45405 0.22127,-0.4174c0.20166,0.10745 0.20276,1.22243 0.00114,1.28407zM103.43106,226.02569c0.00177,-0.22736 -0.0224,-0.52397 -0.05407,-0.65916c-0.0413,-0.1771 -0.00786,-0.18474 0.12035,-0.02684c0.09768,0.12034 0.12211,0.41687 0.05403,0.65902c-0.11729,0.41864 -0.12339,0.41994 -0.12031,0.02697zM71.27266,236.00698c-0.0475,-0.13034 -0.07475,-0.40509 -0.06031,-0.61049c0.01416,-0.20561 0.07411,-0.34831 0.13301,-0.31697c0.05889,0.03134 0.08607,0.30583 0.06052,0.61043c-0.02563,0.30434 -0.08558,0.44704 -0.13322,0.31704zM104.90179,226.34768c-0.08968,-0.51798 -0.13857,-1.03515 -0.10862,-1.14905c0.02987,-0.11374 0.147,-0.23511 0.26021,-0.26972c0.11335,-0.03465 0.17292,0.06299 0.13244,0.21706c-0.04048,0.15406 -0.08435,0.6996 -0.09736,1.21203l-0.02374,0.93183zM114.49651,225.60336c0.13962,-0.09549 0.40364,-0.95636 0.58643,-1.91301c0.18327,-0.95651 0.38601,-1.71106 0.45083,-1.67648c0.06509,0.0345 0.08258,0.78404 0.03881,1.66544c-0.0436,0.88149 -0.06502,1.64957 -0.04747,1.70697c0.01759,0.05753 0.65506,0.14255 1.41644,0.18925c1.79723,0.11006 1.66956,0.34185 -0.17671,0.32008c-2.05305,-0.02419 -2.67165,0.09221 -3.1547,0.59252c-0.23512,0.24372 -0.70663,0.52408 -1.04789,0.62308c-0.65786,0.19045 -0.59743,0.11296 0.31504,-0.40422c0.43678,-0.24766 0.48469,-0.34297 0.20994,-0.41811c-0.26083,-0.07161 -0.28515,-0.12001 -0.09063,-0.18223c0.14598,-0.04636 0.60817,-0.67059 1.02727,-1.38711l0.76184,-1.30249l-0.27153,1.17986c-0.16605,0.72212 -0.17304,1.11267 -0.01766,1.00644zM81.21584,237.29658c-0.43375,-0.31395 -1.42494,-3.09773 -1.37213,-3.85376c0.06527,-0.93284 0.45212,-0.2815 1.09495,1.84234c0.6307,2.08369 0.65881,2.28748 0.27718,2.01142zM72.60941,236.25537c-0.01371,0.15915 -0.09593,0.05746 -0.1825,-0.2257c-0.08657,-0.28316 -0.0752,-0.41318 0.02509,-0.28917c0.10057,0.12421 0.17141,0.35592 0.15741,0.51487zM71.43719,236.82498c-0.01551,0.18423 -0.07925,0.15033 -0.16247,-0.08653c-0.07521,-0.21435 -0.06377,-0.35074 0.0255,-0.30329c0.08926,0.04745 0.15102,0.22292 0.13697,0.38982zM111.27087,225.63062c-0.0595,0.11169 -3.42915,0.25642 -4.28434,0.18415c-0.60139,-0.05103 0.27372,-0.16607 1.91226,-0.25134c2.20783,-0.11518 2.46503,-0.10782 2.37209,0.06719zM70.94517,242.77188c-1.25359,-0.61721 -1.56227,-2.34572 -0.61031,-3.41705c1.01047,-1.13698 2.80202,-1.15028 3.72724,-0.02796c1.56706,1.90101 -0.84284,4.56442 -3.11693,3.44502zM72.01074,241.99998c-0.80049,-0.17297 -1.24321,-1.03476 -0.90332,-1.75852c0.33322,-0.71018 1.06576,-0.86257 1.77529,-0.36919c0.74604,0.51858 0.7955,0.88509 0.22448,1.66306c-0.41011,0.55881 -0.49466,0.59462 -1.09645,0.46464zM113.59686,227.91758c-0.06136,-0.2007 0.02183,-0.50907 0.18459,-0.68508c0.16285,-0.17618 0.3485,-0.33914 0.41247,-0.36258c0.06404,-0.02319 0.08663,1.10687 0.05036,2.51117c-0.03632,1.4046 -0.03761,4.67274 -0.00276,7.26295c0.03489,2.59034 0.0581,5.97782 0.0517,7.52794c-0.0064,1.55013 -0.00707,4.26345 -0.00151,6.02966c0.00577,1.76644 -0.04,3.1406 -0.10173,3.05385c-0.16616,-0.23344 -0.48733,-5.60116 -0.45242,-7.56256c0.05599,-3.17088 0.02552,-9.12959 -0.04772,-9.33185c-0.04052,-0.11083 -0.14745,1.64519 -0.23786,3.90216c-0.18585,4.63337 -0.29645,5.95218 -0.49141,5.84874c-0.07399,-0.03956 -0.05752,-0.65016 0.03683,-1.35714c0.09436,-0.70698 0.11357,-1.81216 0.0431,-2.45605c-0.07073,-0.64381 -0.0905,-2.1946 -0.04373,-3.44656c0.0466,-1.25206 0.0455,-2.29721 -0.00267,-2.32259c-0.04811,-0.02569 -0.17672,1.25967 -0.28567,2.85571c-0.20605,3.01043 -0.76386,5.52155 -1.36025,6.12116c-0.76377,0.76808 -2.58894,0.93378 -3.52284,0.31998c-0.49454,-0.32494 -0.30007,-0.35193 0.73518,-0.1027c1.26007,0.30357 2.0613,-0.18104 2.72556,-1.64835c0.61054,-1.34902 0.82619,-3.58945 1.04174,-10.83883c0.13041,-4.3782 0.30243,-5.52346 0.79126,-5.26343c0.12181,0.06477 0.1922,1.3092 0.12713,2.24313c-0.01233,0.17676 0.07141,0.29256 0.18608,0.25751c0.2255,-0.06894 0.3471,-1.95916 0.16455,-2.55624zM121.55812,227.09955c0.01856,-0.07378 0.01913,-0.5599 0.00102,-1.08071c-0.03325,-0.9587 0.0445,-1.09703 0.53244,-0.94754c0.18431,0.05634 0.21695,0.48354 0.10224,1.34247c-0.11635,0.87242 -0.24539,1.19222 -0.41899,1.03969c-0.13786,-0.12104 -0.23548,-0.28035 -0.2167,-0.3539zM124.20889,226.77104c-0.01553,0.18424 -0.07914,0.1503 -0.16242,-0.08669c-0.0752,-0.21436 -0.06376,-0.3506 0.02549,-0.30314c0.08925,0.04745 0.15098,0.22293 0.13693,0.38984zM77.09641,243.11035c-0.77865,-0.40791 -1.46646,-0.90692 -1.52822,-1.10893c-0.0618,-0.20215 -0.05861,-0.38391 0.00688,-0.40393c0.06549,-0.02002 0.79367,0.26408 1.61798,0.63133l1.4985,0.66771l3.3306,-1.01827c2.70921,-0.82829 3.34668,-0.9646 3.418,-0.73131c0.14329,0.46869 -0.32803,0.68738 -3.70741,1.72056l-3.22016,0.9845zM113.50723,231.95391c-0.11515,0.49172 -0.21447,0.37592 -0.17405,-0.2026c0.01418,-0.20561 0.08273,-0.34387 0.15189,-0.30687c0.06922,0.0367 0.07928,0.26592 0.02215,0.50948zM87.12623,241.84012c0.08452,-0.55132 0.40032,-1.30653 0.70215,-1.67843c1.43638,-1.77248 4.37437,-1.19598 5.0425,0.98938c0.59657,1.95128 -1.09371,4.04292 -2.991,3.70187c-0.76526,-0.13771 -1.96359,-0.76272 -2.0588,-1.07413c-0.06592,-0.21561 -1.07545,0.03316 -4.98739,1.22916l-4.90472,1.49952l-2.04273,3.21255c-1.12343,1.76697 -2.14458,3.21079 -2.2691,3.2086c-0.6369,-0.01204 -0.31474,-0.84754 1.46814,-3.80664l1.95406,-3.2433l9.93289,-3.03679zM73.91565,247.17149c-0.2901,-0.40678 -0.70922,-1.11477 -0.93172,-1.57295c-0.2223,-0.45824 -0.3236,-0.8581 -0.22516,-0.8882c0.09844,-0.0301 0.40075,0.4601 0.67175,1.08943c0.27104,0.62947 0.60956,1.36181 0.75255,1.62773c0.1428,0.26597 0.02243,0.1507 -0.26743,-0.25601zM73.32526,248.9283c-0.00338,0.28427 -1.78195,-3.12319 -1.92587,-3.68966c-0.05834,-0.2299 0.35178,0.4553 0.91122,1.5228c0.55964,1.06744 1.01625,2.04243 1.01466,2.16686zM74.71295,245.57665c0.53568,1.20707 0.08503,0.85775 -0.52088,-0.40375c-0.26062,-0.54233 -0.32679,-0.82654 -0.17175,-0.73557c0.13903,0.08129 0.4507,0.59402 0.69263,1.13932zM75.54502,244.87181c-0.16663,-0.19665 -0.34647,-0.47698 -0.39985,-0.62284c-0.05317,-0.14592 0.01335,-0.23624 0.14804,-0.2008c0.13465,0.0353 0.31447,0.31564 0.39983,0.62284c0.13831,0.49878 0.12239,0.52039 -0.14802,0.20079zM70.51765,246.33857c-0.0155,0.18423 -0.07924,0.15033 -0.16246,-0.08654c-0.07521,-0.21435 -0.06377,-0.35074 0.02554,-0.30316c0.08926,0.04745 0.15102,0.22292 0.13692,0.38969zM89.3476,243.55927c-1.23421,-0.52574 -1.48854,-1.84985 -0.54152,-2.81939c0.18864,-0.1933 0.55781,-0.42 0.82022,-0.50413c0.6515,-0.20842 2.00658,0.54325 2.21643,1.22966c0.21502,0.70329 -0.49312,2.06484 -1.18362,2.27594c-0.28316,0.08657 -0.87336,0.0047 -1.31148,-0.18195zM115.52032,233.70586c-0.01553,0.18424 -0.07927,0.15034 -0.16251,-0.08652c-0.0752,-0.21436 -0.0638,-0.35073 0.02558,-0.30331c0.08925,0.04745 0.15098,0.22293 0.13693,0.38984zM104.01173,241.34342c-0.46555,-1.34293 -0.79066,-2.63097 -0.8101,-3.20894c-0.01781,-0.53115 0.01706,-0.93903 0.07788,-0.90668c0.06069,0.03238 0.26954,0.9156 0.46411,1.96307c0.75688,4.07692 2.62016,6.61399 6.08325,8.28363l0.73793,0.35557l-0.79845,-0.2378c-1.17757,-0.35087 -2.6445,-1.40279 -3.88246,-2.78414c-0.97513,-1.08801 -1.17894,-1.46533 -1.87216,-3.46469zM71.22689,247.93726c-0.01376,0.15902 -0.09593,0.05746 -0.1825,-0.2257c-0.08657,-0.28316 -0.0752,-0.41318 0.02509,-0.28917c0.10057,0.12421 0.17141,0.35592 0.15741,0.51487zM71.68507,248.68395c-0.0155,0.18423 -0.07924,0.15033 -0.16246,-0.08654c-0.07521,-0.21435 -0.06377,-0.35074 0.0255,-0.30329c0.08926,0.04745 0.15102,0.22292 0.13696,0.38982zM113.69573,235.84c-0.01553,0.18424 -0.07927,0.15034 -0.16238,-0.08656c-0.07533,-0.21432 -0.0638,-0.35073 0.02545,-0.30327c0.08925,0.04745 0.15098,0.22293 0.13693,0.38984zM100.54145,245.80992c-0.09728,0.18254 -4.84729,-2.54486 -5.47292,-3.14239c-0.86212,-0.8236 -0.54257,-0.71093 0.85201,0.3002c0.68572,0.4972 2.01946,1.31499 2.96358,1.81688c0.94433,0.50211 1.68995,0.96354 1.65733,1.02531zM81.65529,250.8633c-0.52181,-1.70678 -0.91341,-3.16957 -0.87047,-3.2508c0.11395,-0.21433 4.2101,-1.51065 4.67155,-1.47845c0.21502,0.01521 0.44671,0.20956 0.51485,0.43243c0.06809,0.22273 0.81546,0.79415 1.66086,1.26952l1.53705,0.86456l-0.71333,0.21809c-0.62175,0.19009 -0.89323,0.09923 -2.10785,-0.70506l-1.39399,-0.9233l-1.49346,0.45501l-1.49346,0.45501l1.73318,5.66899l-1.9231,3.60753c-1.69228,3.17509 -1.97316,3.58662 -2.34232,3.43241c-0.37309,-0.15603 -0.22147,-0.54838 1.37497,-3.55898l1.79425,-3.38374zM97.72332,245.71419c-1.17087,-0.65129 -2.39107,-1.44362 -2.71148,-1.76063l-0.58286,-0.57655l0.79532,0.53526c0.43747,0.29449 1.65767,1.08682 2.71148,1.76063l1.91604,1.22541zM115.96928,238.2551c0.07253,0.90124 -0.14473,0.78573 -0.23535,-0.12514c-0.03831,-0.38391 -0.01355,-0.66822 0.05502,-0.63176c0.06857,0.03646 0.14974,0.37697 0.18033,0.7569zM130.10559,237.31103c0.45641,-0.13954 2.70989,-2.84169 3.61526,-4.33539c0.64927,-1.07084 0.85754,-1.24619 0.98489,-0.82963c0.09468,0.30969 -0.48154,2.72472 -0.90995,3.81244c-0.15922,0.4042 -0.38332,1.0233 -0.498,1.37593c-0.2052,0.62992 -1.14939,1.17786 -1.28212,0.74374c-0.03465,-0.11335 0.16319,-0.27512 0.43976,-0.35968c0.27657,-0.08456 0.53651,-0.28248 0.57791,-0.44015c0.04868,-0.18528 -0.01951,-0.21248 -0.1934,-0.07664c-0.33518,0.26191 -2.54057,0.53938 -2.8841,0.36291c-0.15746,-0.08085 -0.10084,-0.17694 0.14973,-0.25354zM134.031,233.43747c-0.24832,0.35583 -0.25779,0.35079 -0.10165,-0.05405c0.09489,-0.24558 0.20756,-0.4575 0.25019,-0.47053c0.16956,-0.05184 0.11224,0.15051 -0.14853,0.52458zM80.25907,253.23989c-0.36611,-0.15312 -1.67728,-1.62001 -2.29109,-2.56339c-0.60969,-0.93656 0.05166,-0.35327 1.37877,1.21667c0.6942,0.82113 1.10462,1.42702 0.91231,1.34673zM108.39585,250.12906c-3.00578,-2.47922 -4.42726,-4.29849 -5.03417,-6.44313l-0.32254,-1.13993l0.54019,1.18592c0.85391,1.87463 2.03127,3.21823 4.71004,5.3754c2.90705,2.34131 4.1124,3.55228 5.15267,5.17659c0.41453,0.64749 0.80271,1.16208 0.86288,1.14369c0.06017,-0.01839 0.45202,-0.43283 0.8709,-0.92074c0.84678,-0.98594 2.2864,-2.0791 2.99233,-2.27227c0.25314,-0.06917 0.01387,0.1539 -0.53164,0.49569c-1.336,0.83698 -2.23476,1.7355 -2.89472,2.89358c-0.30196,0.53008 -0.576,0.97212 -0.60873,0.98212c-0.03273,0.01001 -0.36127,-0.44259 -0.72998,-1.00583c-1.24049,-1.89509 -2.99275,-3.80946 -5.00723,-5.4711zM80.24057,255.03322c-0.22324,0.06825 -3.14359,-3.49498 -3.22828,-3.93916c-0.01395,-0.07292 0.1113,0.02816 0.27859,0.22475c2.45464,2.88622 3.08067,3.67437 2.94969,3.71442zM115.98468,239.64388c-0.01553,0.18424 -0.07927,0.15034 -0.16255,-0.08665c-0.0752,-0.21436 -0.06376,-0.3506 0.02549,-0.30314c0.08938,0.04741 0.15111,0.22289 0.13706,0.38979zM90.97348,248.99341c0.03984,-0.55541 0.56806,-1.55072 1.01153,-1.90677c0.14918,-0.11991 0.64455,-0.29156 1.10082,-0.38201c1.99766,-0.39533 3.55232,1.62216 2.61267,3.3898c-0.79608,1.49721 -2.94665,1.95733 -3.93366,0.84179c-0.37779,-0.42729 -0.42805,-0.42131 -2.92561,0.34228l-2.54097,0.77685l1.10572,3.61663l0.67771,0.04343c0.83819,0.05395 1.8737,0.943 2.1512,1.84737c0.78326,2.55156 -2.2484,4.47573 -4.21684,2.67637c-1.07214,-0.97986 -1.0757,-2.66271 -0.0081,-3.74155l0.57118,-0.57732l-1.41945,-4.64281l2.88826,-0.88303c2.80474,-0.8575 2.88921,-0.89789 2.92555,-1.40101zM131.88191,236.99304c0.36365,-0.11118 1.71775,-1.85215 1.74507,-2.24372c0.01227,-0.1779 0.10748,-0.34928 0.21119,-0.38098c0.34492,-0.10545 -0.14733,1.11606 -0.76592,1.89978c-0.61702,0.78179 -1.0704,1.01621 -1.8481,0.95531c-0.34697,-0.02724 -0.29172,-0.1245 0.29301,-0.5145c0.6458,-0.43046 0.6889,-0.43671 0.41302,-0.05875c-0.1718,0.23562 -0.19328,0.38719 -0.04826,0.34286zM133.16699,234.88475c-0.16182,0.12623 -0.25499,0.11691 -0.21861,-0.02175c0.03503,-0.13321 0.15072,-0.26871 0.25734,-0.3013c0.29623,-0.09057 0.27605,0.07705 -0.03873,0.32306zM116.03052,240.53049c-0.01553,0.18424 -0.07927,0.15034 -0.16251,-0.08652c-0.0752,-0.21436 -0.06367,-0.35077 0.02562,-0.30318c0.08925,0.04745 0.15098,0.22293 0.13689,0.3897zM78.83441,255.17283c-0.05316,0.10008 -1.9215,-2.14412 -2.00065,-2.40301c-0.08435,-0.27591 0.20012,0.01601 1.11501,1.14422c0.51651,0.63695 0.91513,1.20346 0.88566,1.25879zM92.46411,250.01617c-0.50916,-0.51338 -0.5322,-0.65625 -0.23063,-1.43394c0.17306,-0.44623 0.4589,-0.7336 0.84882,-0.85281c0.5889,-0.18004 1.68357,0.35084 1.85078,0.89778c0.16169,0.52886 -0.44274,1.59912 -0.99685,1.76507c-0.66752,0.1999 -0.98013,0.12031 -1.47212,-0.3761zM135.8136,237.74042c-0.06367,-0.03363 -0.1396,-0.72087 -0.16886,-1.52685c-0.02939,-0.80593 0.00154,-1.43624 0.06822,-1.40079c0.06698,0.03551 0.143,0.72257 0.16886,1.52685c0.02616,0.80432 -0.00447,1.43468 -0.06822,1.40079zM116.13905,241.6373c-0.01385,0.15905 -0.09598,0.05748 -0.18255,-0.22569c-0.08657,-0.28316 -0.07524,-0.41317 0.02514,-0.28918c0.10046,0.12425 0.1713,0.35595 0.15741,0.51487zM112.21265,245.99653c-0.09391,-0.12264 -0.01518,-0.97606 0.17504,-1.89616c0.19013,-0.92037 0.39002,-1.64981 0.44412,-1.62104c0.05419,0.0286 -0.00345,0.57155 -0.12798,1.20625c-0.12463,0.63486 -0.24767,1.4646 -0.27364,1.84407c-0.02596,0.37947 -0.12376,0.58958 -0.21766,0.46693zM117.91238,246.53335c-0.74454,-0.34936 -1.42122,-1.57349 -1.71533,-3.10273c-0.14149,-0.73603 -0.2104,-1.35269 -0.15314,-1.3702c0.05713,-0.01747 0.24879,0.65849 0.42545,1.5025c0.28725,1.37089 0.40781,1.62318 1.13159,2.36947c0.67695,0.69741 0.72819,0.79659 0.31142,0.60096zM102.69966,250.26309c-1.50111,-0.44544 -4.97237,-2.07146 -5.0643,-2.37217c-0.02973,-0.09725 0.84754,0.17893 1.9496,0.61363c1.10188,0.43461 2.73865,0.97073 3.63704,1.1914c2.26216,0.55572 3.67486,1.02675 3.58518,1.19542c-0.11396,0.21433 -2.49654,-0.15005 -4.10752,-0.62827zM135.09231,237.7399c-0.11519,0.49159 -0.21451,0.37579 -0.17405,-0.2026c0.01414,-0.20574 0.08268,-0.344 0.15185,-0.307c0.06935,0.03666 0.07932,0.26605 0.02219,0.50961zM127.62862,243.04294c1.54486,-1.13024 3.20529,-2.81597 3.59964,-3.65449c0.11903,-0.25296 0.40246,-0.51708 0.62981,-0.58659c0.63771,-0.19497 -1.10446,2.63207 -2.46106,3.99347c-1.62411,1.62989 -4.07529,2.86799 -6.45042,3.25853c-2.05961,0.33852 -3.41605,0.1709 -4.40616,-0.54417l-0.70253,-0.50736l0.90415,0.43013c1.76399,0.83947 2.30101,0.82953 5.35862,-0.09893c1.96495,-0.5967 2.87835,-0.96123 3.11061,-1.24217c0.31115,-0.3759 0.30301,-0.38222 -0.14856,-0.11734c-1.20929,0.70965 -3.28864,1.39702 -4.81808,1.59279c-1.47032,0.18808 -1.77554,0.14591 -2.88376,-0.39959l-1.23978,-0.61003l1.24646,0.39401c1.62254,0.51321 2.62788,0.46685 4.88504,-0.22554c1.50743,-0.46217 2.13682,-0.77593 3.37601,-1.68273zM78.38213,255.95244c-0.24332,-0.16613 -0.47006,-0.39216 -0.50387,-0.50274c-0.07996,-0.26153 0.05088,-0.17384 0.54385,0.3647c0.37943,0.41467 0.37734,0.42253 -0.03998,0.13804zM127.32093,245.18671c1.37492,-0.92391 3.17121,-3.01852 4.32902,-5.04806c0.8416,-1.47578 1.1184,-1.80829 1.22227,-1.46851c0.06346,0.20756 -0.9942,2.08428 -1.84534,3.27398c-0.85866,1.20051 -3.04588,3.1656 -4.03838,3.62819c-0.61403,0.28613 -0.54053,0.20089 0.33242,-0.38558zM102.23557,251.15294c0.04894,0.16006 -2.84044,-0.96862 -3.45228,-1.3483c-0.30562,-0.18979 0.33924,0.0133 1.43287,0.45158c1.09377,0.43824 2.00263,0.84183 2.01942,0.89672zM131.58478,243.11337c0.47314,-0.57895 1.1614,-1.55956 1.52936,-2.17907c0.36796,-0.61951 0.71547,-1.13985 0.77227,-1.1565c0.25084,-0.07337 -1.83345,3.22605 -2.43797,3.85945c-0.9507,0.99621 -0.87816,0.71764 0.13634,-0.52388zM103.26896,252.68067c-0.10225,0.19271 -2.64675,-0.63524 -4.10664,-1.33611c-1.56119,-0.74954 -1.31844,-0.8555 0.30948,-0.13502c0.68348,0.30253 1.83391,0.72604 2.55677,0.94121c0.72259,0.21525 1.28088,0.45376 1.24039,0.52991zM111.91489,247.4587c-0.03582,-0.11717 -0.02224,-0.2936 0.03033,-0.39206c0.05223,-0.09864 0.15782,-0.14593 0.23427,-0.10539c0.07633,0.04058 0.06274,0.21701 -0.03033,0.39206c-0.10251,0.1928 -0.19486,0.2343 -0.23427,0.10539zM97.83125,254.69794c-1.7208,-0.89972 -3.10007,-1.74513 -3.06485,-1.87912c0.09567,-0.36384 0.19712,-0.32979 3.37234,1.13352c2.50387,1.15376 3.0686,1.33027 3.82235,1.19577c0.68272,-0.12187 1.0117,-0.31248 1.44117,-0.83465c1.23828,-1.50631 3.46296,-1.27516 3.97925,0.41354c0.3097,1.01298 0.15497,1.62112 -0.56448,2.21795c-1.11276,0.92297 -2.63503,0.66508 -3.40805,-0.57736c-0.31002,-0.49822 -0.42991,-0.52318 -1.39412,-0.28942c-1.03837,0.25167 -1.10404,0.2299 -4.18361,-1.38024zM87.11399,259.64809c-0.7608,-0.37469 -1.06906,-1.27817 -0.68329,-2.00369c0.58144,-1.09354 2.42478,-0.9214 2.77816,0.25945c0.19347,0.64698 0.11036,0.96269 -0.38243,1.4514c-0.55616,0.55138 -1.02454,0.63152 -1.7124,0.29296zM120.09418,247.309c-0.0438,0.08279 -0.22929,0.07025 -0.4122,-0.02779c-0.26409,-0.14174 -0.24752,-0.1725 0.08007,-0.15058c0.22675,0.01537 0.3762,0.0955 0.33213,0.17837zM121.89666,247.1625c-0.04741,0.08938 -0.22289,0.15111 -0.38966,0.13702c-0.18437,-0.01549 -0.15047,-0.07923 0.08639,-0.16247c0.21436,-0.0752 0.35073,-0.0638 0.30327,0.02545zM126.07834,246.10926c-0.04759,0.08929 -0.22289,0.15111 -0.3897,0.13689c-0.18433,-0.01535 -0.15044,-0.0791 0.08643,-0.16234c0.21436,-0.0752 0.35073,-0.0638 0.30327,0.02545zM124.29987,246.89684c-0.1811,0.11178 -0.55118,0.22695 -0.82248,0.25607c-0.27116,0.02909 -0.12309,-0.06235 0.3293,-0.20326c0.4523,-0.14074 0.67431,-0.16446 0.49318,-0.05281zM106.95856,252.60693c-0.39347,-0.07175 -0.72962,-0.17689 -0.74693,-0.23349c-0.01731,-0.05661 0.29049,-0.04423 0.68395,0.02752c0.39351,0.07188 0.72962,0.17689 0.74693,0.23349c0.01731,0.05661 -0.29049,0.04423 -0.68395,-0.02752zM99.41746,261.77723c-2.13791,-0.75949 -6.6115,-3.04621 -7.26833,-3.71557c-0.19809,-0.20146 0.90326,0.32292 2.44726,1.16587c4.057,2.21439 6.68378,3.0811 11.1854,3.69118c1.25652,0.17018 1.98898,0.3361 1.62721,0.3685c-1.25098,0.11222 -5.8943,-0.76503 -7.99155,-1.50998zM104.97255,256.47133c-0.52523,-0.10346 -0.91178,-1.04173 -0.63994,-1.55279c0.30291,-0.5699 1.27086,-0.70928 1.80997,-0.26075c0.45829,0.38147 0.48145,0.45721 0.31482,1.02974c-0.19059,0.65459 -0.7207,0.9344 -1.48485,0.7838zM87.86071,262.94941c-0.77444,-0.3825 -1.92928,-1.04273 -2.5664,-1.46722c-1.33651,-0.89066 -0.89865,-0.66931 1.94341,0.98214c1.42398,0.82742 1.61043,0.97242 0.623,0.48507zM120.18091,250.38936c-0.04745,0.08925 -0.22293,0.15098 -0.38957,0.13685c-0.18437,-0.01549 -0.1506,-0.07919 0.08639,-0.16247c0.21436,-0.0752 0.35064,-0.06362 0.30318,0.02562zM117.38933,252.1068c-0.72516,0.50594 -0.38828,0.06085 0.41308,-0.54558c0.39476,-0.29874 0.9493,-0.61429 1.23234,-0.70126c0.32817,-0.10076 0.20729,0.03806 -0.33335,0.38255c-0.4664,0.29755 -1.05686,0.68627 -1.31206,0.86429zM114.26844,254.91284c-0.06327,-0.03375 -0.12859,-0.32717 -0.14542,-0.65214c-0.01639,-0.32497 0.02201,-0.56323 0.08537,-0.52965c0.06327,0.03375 0.12863,0.3273 0.14546,0.65228c0.01635,0.32484 -0.02205,0.5631 -0.08541,0.52952zM97.34057,264.60387c0.11792,0.38569 -5.25881,-1.9064 -6.50632,-2.77393c-0.77407,-0.53844 -0.38172,-0.62419 0.47433,-0.10361c0.37283,0.22653 1.87696,0.94849 3.34248,1.60407c1.46555,0.65571 2.67584,1.22873 2.68951,1.27346zM95.95199,265.40195c-0.73885,-0.17926 -5.02124,-1.97413 -5.99284,-2.51162c-0.58922,-0.326 -0.97907,-0.62091 -0.86638,-0.65537c0.11255,-0.03441 0.74807,0.23676 1.41207,0.60252c0.664,0.36576 2.21733,1.06837 3.4517,1.56159c2.03401,0.81232 2.80407,1.19934 1.99546,1.00288zM100.01034,264.51166c-2.23414,-0.70049 -6.15343,-2.46397 -6.26139,-2.81707c-0.0305,-0.09975 0.89798,0.20232 2.06291,0.67133c4.43769,1.78606 9.00573,2.7413 13.29115,2.77916c1.24183,0.01077 2.66507,0.02595 3.16285,0.03348l0.9048,0.01368l-1.16686,0.23396c-3.48222,0.69872 -7.92965,0.35934 -11.99346,-0.91454zM108.80999,257.55788c-0.16982,0.05192 -0.33633,0.00471 -0.36989,-0.10507c-0.03352,-0.10965 0.09442,-0.18859 0.28412,-0.17545c0.18992,0.01335 0.3563,0.0606 0.36993,0.1052c0.0136,0.04447 -0.11422,0.12336 -0.28417,0.17532zM110.94767,257.5526c-0.16887,0.05552 -0.62387,0.05857 -1.01124,0.00675c-0.9067,-0.12087 -0.5385,-0.23936 0.51248,-0.16476c0.44315,0.03131 0.66754,0.10266 0.49876,0.15801zM123.00782,253.72245c1.88725,-0.60873 3.91681,-1.34336 4.50965,-1.63225c1.46636,-0.71451 1.51565,-0.73074 1.21343,-0.40302c-0.67891,0.73651 -8.97798,3.7404 -9.1092,3.29703c-0.02532,-0.08518 1.49847,-0.65291 3.38612,-1.26177zM122.23626,255.27205c2.09681,-0.72748 3.85692,-1.40614 3.91099,-1.50823c0.05441,-0.1019 0.15914,-0.1534 0.23322,-0.11401c0.41453,0.22041 -0.47292,0.59807 -4.0183,1.70985l-3.93846,1.23527z" data-paper-data="{&quot;isPathIcon&quot;:true}" fill="#041076"></path></g></g></g></svg>
